<?xml version="1.0" encoding="UTF-8"?>
<svg id="Laag_2" data-name="Laag 2" xmlns="http://www.w3.org/2000/svg" viewBox="0 0 117.3 155.7">
  <defs>
    <style>
      .cls-1 {
        font-size: 18px;
      }

      .cls-1, .cls-2, .cls-3, .cls-4 {
        fill: #006448;
      }

      .cls-1, .cls-2, .cls-5, .cls-4 {
        font-family: Bourbon-Rough, Bourbon;
      }

      .cls-2 {
        font-size: 28px;
      }

      .cls-6 {
        letter-spacing: .1em;
      }

      .cls-7 {
        fill: #d5c28a;
      }

      .cls-8 {
        letter-spacing: -.06em;
      }

      .cls-5 {
        fill: #b57402;
        font-size: 10px;
      }

      .cls-4 {
        font-size: 12px;
      }

      .cls-9 {
        letter-spacing: .05em;
      }

      .cls-10 {
        letter-spacing: -.08em;
      }

      .cls-11 {
        fill: #d8e7e2;
      }
    </style>
  </defs>
  <g id="Laag_1-2" data-name="Laag 1">
    <g>
      <ellipse class="cls-3" cx="58.65" cy="86.02" rx="54.44" ry="65.82"/>
      <path class="cls-3" d="M58.65,155.7C26.31,155.7,0,124.44,0,86.02S26.31,16.33,58.65,16.33s58.65,31.26,58.65,69.68-26.31,69.69-58.65,69.69Z"/>
      <ellipse class="cls-7" cx="58.65" cy="86.02" rx="54.44" ry="65.82"/>
      <ellipse class="cls-7" cx="58.65" cy="86.02" rx="54.44" ry="65.82"/>
      <path class="cls-11" d="M58.65,148.27c-27.8,0-50.41-27.93-50.41-62.25S30.85,23.77,58.65,23.77s50.41,27.92,50.41,62.25-22.62,62.25-50.41,62.25Z"/>
    </g>
    <g>
      <path class="cls-3" d="M52.74,13.66l.56-3.81c-2.92-.31-5.98,2.66-7.62-.73-.77-1.6-1.69-2.84.06-3.94.84-.53,4.76-2.66,7.79-4.19,2.16-1.09,6.23-1.25,8.53-.58s2.53,4.69,2.68,6.79-.15,4.41-.01,6.56l.45,3.17c.36,1.72.26,3.81.65,5.45,1.48,6.17,8.62,7.48,7.93,14.66-.57,5.96-6.53,7.15-11.49,7.47-6.69.44-18.37.73-18.77-8.4-.25-5.71,5.7-7.63,7.46-11.95.86-2.1,1.35-4.73,1.46-6.98"/>
      <path class="cls-7" d="M59.13,2.43c2.29-1.11,2.95-.13,3.21,2.86.6,6.76-.12,15.72,3.02,21.49,1.63,2.99,6.37,7.05,2.97,11.01l-7.24.75c-.32-.21-1.9-3.88-1.96-4.38-.2-1.87,1.71-3,1.63-5.12-.06-1.33-1.62-3.52-1.62-3.92V2.43Z"/>
      <path class="cls-7" d="M57.85,2.02v23.04c-1.31.32-2.65.53-3.89-.26-.09-2.64,2.51-17.55,1.79-18.74-.97-1.62-6.58,3.09-8.35,2.29l-.02-1.98c3.68-.94,6.59-4.74,10.47-4.34Z"/>
      <path class="cls-7" d="M56.97,33.57c-2.11,3.6,1.46,6.4-4.44,5.04-4.06-.93-3.65-5.04-1.68-5.04h6.13Z"/>
      <path class="cls-7" d="M51.37,31.35c-3.06-3.08,4.53-7.03,6.21-3.34s-4.66,4.9-6.21,3.34Z"/>
      <path class="cls-7" d="M47.69,32.29c.32.93-.74,1.85-.74,2.48,0,.66,1.06,1.44.7,2.65-.52,1.76-4.05,0-.87-1.29-1.29-1.36-1.34-3.61.91-3.84Z"/>
    </g>
    <text class="cls-4" transform="translate(31.97 64.86)"><tspan x="0" y="0">intern</tspan><tspan class="cls-8" x="24.6" y="0">a</tspan><tspan x="28.7" y="0">tional</tspan></text>
    <text class="cls-2" transform="translate(25.88 94.97)"><tspan x="0" y="0">whisky</tspan></text>
    <text class="cls-1" transform="translate(34.61 117)"><tspan x="0" y="0">festi</tspan><tspan class="cls-10" x="29.05" y="0">v</tspan><tspan x="34.54" y="0">al</tspan></text>
    <text class="cls-5" transform="translate(40.91 136.93)"><tspan class="cls-6" x="0" y="0">es</tspan><tspan class="cls-9" x="9.18" y="0">t</tspan><tspan class="cls-6" x="13.28" y="0">. 1999</tspan></text>
  </g>
</svg>